<?xml version="1.0" encoding="UTF-8"?>
<svg id="Layer_1" data-name="Layer 1" xmlns="http://www.w3.org/2000/svg" viewBox="0 0 1479.05 486.81">
  <defs>
    <style>
      .cls-1, .cls-2 {
        fill-rule: evenodd;
      }

      .cls-1, .cls-3 {
        fill: #fff;
      }

      .cls-2 {
        fill: #ec9f22;
      }

      .cls-3 {
        font-family: Arial-BoldItalicMT, Arial;
        font-size: 49.58px;
        font-style: italic;
        font-weight: 700;
      }
    </style>
  </defs>
  <path class="cls-1" d="m1378.55,135.21l11.98-1.37c.5,1.78,1.19,3.05,2.08,3.81.89.76,2.08,1.15,3.57,1.15,1.62,0,2.88-.43,3.77-1.31.7-.64,1.04-1.45,1.04-2.42,0-1.09-.46-1.94-1.37-2.54-.65-.42-2.38-.94-5.19-1.56-4.2-.92-7.11-1.77-8.75-2.56-1.63-.78-3-2.11-4.13-3.97-1.11-1.87-1.67-3.99-1.67-6.38,0-2.6.6-4.85,1.81-6.74,1.21-1.89,2.87-3.3,4.99-4.23,2.12-.93,4.96-1.4,8.52-1.4,3.75,0,6.53.36,8.31,1.08,1.8.72,3.28,1.84,4.48,3.35,1.2,1.53,2.19,3.57,2.98,6.17l-11.44,1.37c-.29-1.26-.79-2.19-1.48-2.78-.94-.79-2.09-1.18-3.43-1.18s-2.35.3-2.97.92c-.62.61-.93,1.35-.93,2.21,0,.98.39,1.7,1.17,2.2.78.51,2.5.95,5.15,1.35,4.03.57,7.01,1.37,8.97,2.39,1.96,1.02,3.46,2.47,4.49,4.36,1.04,1.89,1.56,3.96,1.56,6.23s-.55,4.51-1.65,6.68c-1.09,2.16-2.83,3.88-5.19,5.16-2.36,1.28-5.59,1.92-9.66,1.92-5.76,0-9.86-1.03-12.31-3.1-2.44-2.06-4.01-4.99-4.7-8.8m-15.69-12.28c-.23-2.95-.87-5.06-1.9-6.33-1.02-1.27-2.36-1.91-4.03-1.91-1.93,0-3.47.97-4.62,2.89-.73,1.2-1.2,2.98-1.4,5.35h11.95Zm12.29,7.25h-24.27c.22,2.43.74,4.24,1.58,5.44,1.17,1.72,2.7,2.57,4.58,2.57,1.2,0,2.33-.37,3.4-1.11.66-.47,1.37-1.3,2.12-2.48l11.92,1.37c-1.82,3.96-4.02,6.82-6.6,8.54-2.57,1.73-6.27,2.59-11.09,2.59-4.19,0-7.47-.74-9.88-2.22-2.39-1.48-4.38-3.83-5.96-7.04-1.57-3.23-2.36-7.02-2.36-11.36,0-6.19,1.58-11.21,4.74-15.04,3.15-3.83,7.52-5.75,13.09-5.75,4.52,0,8.08.86,10.69,2.58,2.61,1.72,4.61,4.19,5.98,7.46,1.37,3.26,2.05,7.5,2.05,12.73v1.72Zm-47.43-38.59v15.03h6.63v11.14h-6.63v14.01c0,1.68.13,2.8.39,3.34.4.84,1.1,1.26,2.09,1.26.89,0,2.14-.32,3.75-.97l.89,10.49c-2.99.83-5.78,1.23-8.37,1.23-3.01,0-5.23-.48-6.66-1.45-1.42-.97-2.47-2.44-3.16-4.41-.68-1.97-1.02-5.17-1.02-9.58v-13.92h-4.44v-11.14h4.44v-7.26l12.1-7.77Zm-32.59,35.77c-1.66.75-3.4,1.41-5.21,2-2.45.83-4.02,1.64-4.66,2.44-.68.83-1.01,1.77-1.01,2.82,0,1.21.33,2.2.99,2.96.67.76,1.64,1.14,2.93,1.14s2.61-.42,3.77-1.25c1.15-.83,1.98-1.83,2.46-3.03.49-1.2.73-2.75.73-4.65v-2.44Zm-10.46-7.93l-11.56-1.53c.44-2.54,1.07-4.54,1.89-5.99.82-1.46,2-2.72,3.55-3.79,1.1-.78,2.63-1.37,4.56-1.79,1.94-.42,4.04-.64,6.3-.64,3.62,0,6.52.26,8.72.76,2.19.51,4.03,1.58,5.48,3.19,1.03,1.12,1.85,2.71,2.43,4.76.6,2.05.89,4,.89,5.87v17.49c0,1.87.09,3.33.28,4.38.18,1.06.6,2.4,1.23,4.04h-11.32c-.46-1.02-.75-1.78-.89-2.31-.13-.54-.27-1.36-.41-2.49-1.58,1.91-3.15,3.27-4.73,4.08-2.14,1.09-4.62,1.64-7.45,1.64-3.76,0-6.62-1.09-8.57-3.29-1.96-2.19-2.93-4.9-2.93-8.1,0-3.01.7-5.49,2.11-7.43,1.41-1.95,4.01-3.39,7.79-4.34,4.53-1.14,7.47-1.94,8.82-2.41,1.35-.46,2.78-1.06,4.28-1.8,0-1.87-.3-3.17-.92-3.92-.61-.75-1.68-1.12-3.22-1.12-1.98,0-3.46.39-4.45,1.19-.77.64-1.39,1.8-1.86,3.53Zm-30.9-12.81h12.1v39.58h-12.1v-39.58Zm0-15.03h12.1v10.3h-12.1v-10.3Zm-17.46,39.13l11.49,1.6c-.64,3.01-1.67,5.62-3.12,7.83-1.44,2.2-3.29,3.92-5.55,5.13-2.24,1.22-5.1,1.83-8.57,1.83s-6.14-.39-8.37-1.17c-2.22-.79-4.13-2.06-5.74-3.81-1.6-1.74-2.86-3.8-3.77-6.17-.91-2.37-1.37-5.49-1.37-9.39s.56-7.46,1.66-10.17c.81-2,1.92-3.78,3.33-5.35,1.41-1.58,2.85-2.76,4.34-3.52,2.36-1.22,5.38-1.83,9.06-1.83,5.16,0,9.08,1.16,11.79,3.46,2.71,2.31,4.6,5.68,5.7,10.12l-11.37,1.91c-.36-1.69-1-2.96-1.95-3.83-.94-.85-2.21-1.28-3.8-1.28-2,0-3.62.9-4.87,2.7-1.24,1.8-1.86,4.52-1.86,8.19,0,3.25.62,5.72,1.84,7.41,1.23,1.69,2.79,2.53,4.69,2.53,1.58,0,2.92-.51,3.99-1.51,1.09-1.02,1.88-2.57,2.42-4.67Zm-53.46-4.22c0,3.55.57,6.17,1.7,7.86,1.13,1.69,2.55,2.54,4.28,2.54s3.15-.84,4.27-2.5c1.12-1.67,1.67-4.35,1.67-8.03,0-3.44-.56-6-1.68-7.69-1.13-1.68-2.51-2.52-4.18-2.52-1.75,0-3.2.85-4.35,2.56-1.14,1.72-1.71,4.31-1.71,7.79Zm-12.1.03c0-6.05,1.62-11.03,4.87-14.95,3.24-3.92,7.62-5.87,13.14-5.87,6.32,0,11.08,2.3,14.3,6.9,2.58,3.71,3.88,8.28,3.88,13.69,0,6.1-1.6,11.08-4.82,14.99-3.21,3.89-7.66,5.83-13.34,5.83-5.06,0-9.15-1.61-12.27-4.86-3.84-4-5.76-9.25-5.76-15.74Zm-37.82,8.69l11.98-1.37c.5,1.78,1.19,3.05,2.08,3.81.89.76,2.08,1.15,3.57,1.15,1.62,0,2.88-.43,3.77-1.31.7-.64,1.05-1.45,1.05-2.42,0-1.09-.46-1.94-1.37-2.54-.65-.42-2.38-.94-5.19-1.56-4.2-.92-7.11-1.77-8.75-2.56-1.63-.78-3-2.11-4.12-3.97-1.11-1.87-1.67-3.99-1.67-6.38,0-2.6.6-4.85,1.8-6.74,1.21-1.89,2.87-3.3,4.99-4.23,2.12-.93,4.96-1.4,8.51-1.4,3.75,0,6.53.36,8.31,1.08,1.8.72,3.28,1.84,4.48,3.35,1.2,1.53,2.19,3.57,2.98,6.17l-11.44,1.37c-.29-1.26-.79-2.19-1.48-2.78-.94-.79-2.09-1.18-3.43-1.18s-2.35.3-2.97.92c-.62.61-.93,1.35-.93,2.21,0,.98.39,1.7,1.17,2.2.78.51,2.51.95,5.15,1.35,4.02.57,7.01,1.37,8.97,2.39,1.95,1.02,3.46,2.47,4.49,4.36,1.04,1.89,1.56,3.96,1.56,6.23s-.55,4.51-1.65,6.68c-1.09,2.16-2.83,3.88-5.19,5.16-2.36,1.28-5.58,1.92-9.66,1.92-5.76,0-9.86-1.03-12.3-3.1-2.44-2.06-4.01-4.99-4.7-8.8Zm-37.15,0l11.98-1.37c.5,1.78,1.18,3.05,2.08,3.81.89.76,2.08,1.15,3.57,1.15,1.62,0,2.88-.43,3.77-1.31.7-.64,1.05-1.45,1.05-2.42,0-1.09-.46-1.94-1.37-2.54-.65-.42-2.38-.94-5.19-1.56-4.2-.92-7.11-1.77-8.75-2.56-1.63-.78-3-2.11-4.13-3.97-1.11-1.87-1.67-3.99-1.67-6.38,0-2.6.6-4.85,1.8-6.74,1.21-1.89,2.87-3.3,4.99-4.23,2.12-.93,4.96-1.4,8.52-1.4,3.75,0,6.53.36,8.31,1.08,1.8.72,3.28,1.84,4.48,3.35,1.2,1.53,2.19,3.57,2.98,6.17l-11.44,1.37c-.29-1.26-.79-2.19-1.48-2.78-.94-.79-2.09-1.18-3.43-1.18s-2.35.3-2.97.92c-.62.61-.93,1.35-.93,2.21,0,.98.39,1.7,1.17,2.2.78.51,2.5.95,5.15,1.35,4.02.57,7,1.37,8.97,2.39,1.95,1.02,3.46,2.47,4.49,4.36,1.05,1.89,1.56,3.96,1.56,6.23s-.55,4.51-1.65,6.68c-1.09,2.16-2.83,3.88-5.19,5.16-2.36,1.28-5.58,1.92-9.66,1.92-5.76,0-9.86-1.03-12.3-3.1-2.44-2.06-4.01-4.99-4.7-8.8Zm-20.45-9.84l-4.76-19.63-4.78,19.63h9.53Zm2.85,11.82h-15.25l-2.19,9h-13.74l16.39-54.61h14.73l16.32,54.61h-14.09l-2.18-9Zm-84.97-13.84c-1.67,1.46-2.78,2.72-3.31,3.76-.55,1.05-.82,2.16-.82,3.33,0,1.82.62,3.43,1.87,4.85,1.25,1.41,2.87,2.12,4.86,2.12,2.16,0,4.58-1.05,7.27-3.18-2.57-2.48-5.86-6.11-9.86-10.89Zm4.3-13.28c1.56-1.08,2.76-2.24,3.61-3.49.85-1.26,1.28-2.44,1.28-3.56s-.35-2.16-1.06-2.97c-.71-.8-1.69-1.21-2.94-1.21s-2.22.44-2.99,1.35c-.77.89-1.16,1.94-1.16,3.16,0,1.55,1.09,3.79,3.26,6.72Zm13.89,9.59l9.43,2.64c-.5,2.2-.97,3.95-1.42,5.28-.46,1.31-1.11,2.87-1.93,4.66l4.53,3.92c.56.45,1.27.98,2.14,1.6l-6.5,9.36c-1.19-.79-2.42-1.7-3.69-2.75-1.28-1.04-2.42-1.93-3.43-2.67-2.1,1.73-4.2,2.99-6.3,3.79-2.9,1.08-6.2,1.63-9.9,1.63-5.8,0-10.11-1.51-12.93-4.55-2.83-3.03-4.25-6.7-4.25-11.02,0-3.11.83-6.05,2.49-8.82,1.66-2.76,4.38-5.11,8.16-7.02-1.58-2.41-2.66-4.5-3.25-6.28-.6-1.77-.89-3.59-.89-5.42,0-3.88,1.17-7.07,3.53-9.57,2.36-2.5,5.93-3.76,10.72-3.76s8.48,1.19,10.76,3.57c2.3,2.39,3.45,5.24,3.45,8.57,0,1.87-.35,3.65-1.05,5.36-.71,1.72-1.55,3.1-2.54,4.17-1,1.07-2.77,2.66-5.33,4.77,2.12,2.67,4.33,5.15,6.63,7.44.61-1.55,1.13-3.18,1.57-4.89Zm-74.47,7.7c-1.66.75-3.4,1.41-5.21,2-2.45.83-4.02,1.64-4.66,2.44-.68.83-1.01,1.77-1.01,2.82,0,1.21.34,2.2.99,2.96.67.76,1.64,1.14,2.93,1.14s2.61-.42,3.77-1.25c1.16-.83,1.98-1.83,2.46-3.03.49-1.2.73-2.75.73-4.65v-2.44Zm-10.46-7.93l-11.56-1.53c.44-2.54,1.06-4.54,1.89-5.99.82-1.46,2-2.72,3.55-3.79,1.1-.78,2.63-1.37,4.56-1.79,1.94-.42,4.04-.64,6.29-.64,3.62,0,6.52.26,8.72.76,2.19.51,4.02,1.58,5.48,3.19,1.04,1.12,1.85,2.71,2.43,4.76.6,2.05.89,4,.89,5.87v17.49c0,1.87.09,3.33.28,4.38.18,1.06.6,2.4,1.23,4.04h-11.32c-.46-1.02-.75-1.78-.89-2.31-.13-.54-.28-1.36-.42-2.49-1.58,1.91-3.15,3.27-4.72,4.08-2.14,1.09-4.62,1.64-7.45,1.64-3.76,0-6.62-1.09-8.56-3.29-1.96-2.19-2.93-4.9-2.93-8.1,0-3.01.7-5.49,2.11-7.43,1.41-1.95,4-3.39,7.78-4.34,4.53-1.14,7.47-1.94,8.82-2.41,1.35-.46,2.77-1.06,4.28-1.8,0-1.87-.3-3.17-.92-3.92-.61-.75-1.68-1.12-3.22-1.12-1.98,0-3.46.39-4.45,1.19-.77.64-1.39,1.8-1.87,3.53Zm-71.77-12.81h11.27v5.76c1.62-2.42,3.26-4.13,4.92-5.15,1.65-1.02,3.65-1.53,5.99-1.53,2.51,0,4.5.56,5.97,1.68,1.47,1.12,2.67,2.78,3.6,4.99,1.9-2.58,3.62-4.35,5.18-5.27,1.56-.93,3.49-1.4,5.77-1.4,3.38,0,6.01,1.26,7.91,3.79,1.9,2.52,2.85,6.47,2.85,11.84v24.88h-12.1v-22.61c0-1.81-.27-3.14-.83-4.01-.8-1.37-1.81-2.06-3.01-2.06-1.42,0-2.56.65-3.43,1.95-.86,1.3-1.3,3.38-1.3,6.24v20.49h-12.1v-21.81c0-1.74-.08-2.92-.24-3.55-.26-.99-.7-1.79-1.34-2.4-.63-.61-1.38-.92-2.23-.92-1.39,0-2.53.66-3.43,1.97-.89,1.32-1.34,3.48-1.34,6.49v20.21h-12.1v-39.58Zm-30.05,19.88c0,3.55.57,6.17,1.7,7.86,1.14,1.69,2.55,2.54,4.28,2.54s3.15-.84,4.27-2.5c1.11-1.67,1.67-4.35,1.67-8.03,0-3.44-.56-6-1.68-7.69-1.13-1.68-2.51-2.52-4.18-2.52-1.75,0-3.2.85-4.35,2.56-1.15,1.72-1.71,4.31-1.71,7.79Zm-12.1.03c0-6.05,1.62-11.03,4.87-14.95,3.24-3.92,7.62-5.87,13.14-5.87,6.32,0,11.08,2.3,14.3,6.9,2.58,3.71,3.88,8.28,3.88,13.69,0,6.1-1.6,11.08-4.81,14.99-3.21,3.89-7.66,5.83-13.34,5.83-5.06,0-9.15-1.61-12.27-4.86-3.84-4-5.76-9.25-5.76-15.74Zm-58.43-19.91h11.69l5.08,24.85,6.45-24.85h10.83l6.67,24.89,5.09-24.89h11.62l-11.61,39.58h-10.75l-6.38-23.82-6.17,23.82h-10.81l-11.7-39.58Zm-53.21-15.03h17.75l6.76,33.23,6.78-33.23h17.67v54.61h-11.01v-41.63l-8.49,41.63h-9.97l-8.48-41.63v41.63h-11.01v-54.61Z"/>
  <path class="cls-1" d="m1341.66,267.17l25.17-2.88c1.05,3.74,2.49,6.41,4.37,8.01,1.87,1.61,4.37,2.41,7.5,2.41,3.41,0,6.05-.91,7.92-2.75,1.47-1.34,2.2-3.05,2.2-5.08,0-2.3-.96-4.08-2.88-5.34-1.36-.88-5-1.98-10.9-3.28-8.82-1.92-14.93-3.71-18.38-5.37-3.43-1.63-6.31-4.43-8.67-8.33-2.34-3.92-3.51-8.38-3.51-13.41,0-5.48,1.26-10.2,3.79-14.15,2.54-3.98,6.03-6.94,10.48-8.89,4.46-1.95,10.42-2.94,17.89-2.94,7.88,0,13.72.75,17.46,2.27,3.77,1.52,6.9,3.87,9.41,7.05,2.52,3.21,4.6,7.5,6.26,12.95l-24.03,2.88c-.61-2.64-1.66-4.59-3.11-5.85-1.98-1.65-4.38-2.48-7.22-2.48s-4.94.64-6.24,1.92c-1.3,1.29-1.96,2.83-1.96,4.65,0,2.06.83,3.58,2.47,4.62,1.64,1.07,5.26,2,10.82,2.84,8.45,1.2,14.72,2.88,18.85,5.02,4.11,2.14,7.26,5.18,9.44,9.16,2.19,3.98,3.28,8.33,3.28,13.09s-1.15,9.48-3.47,14.03c-2.3,4.54-5.94,8.14-10.9,10.84-4.96,2.69-11.73,4.03-20.3,4.03-12.1,0-20.72-2.16-25.85-6.52-5.13-4.33-8.43-10.49-9.88-18.48m-32.97-25.8c-.49-6.2-1.83-10.63-3.98-13.3-2.15-2.67-4.96-4.01-8.48-4.01-4.04,0-7.29,2.03-9.71,6.06-1.53,2.51-2.51,6.25-2.94,11.24h25.11Zm25.81,15.22h-50.99c.47,5.1,1.56,8.92,3.33,11.43,2.44,3.61,5.66,5.4,9.62,5.4,2.51,0,4.9-.78,7.14-2.32,1.39-.99,2.88-2.73,4.45-5.21l25.05,2.88c-3.84,8.33-8.46,14.34-13.87,17.95-5.41,3.63-13.18,5.45-23.3,5.45-8.8,0-15.7-1.55-20.75-4.67-5.03-3.1-9.2-8.04-12.52-14.8-3.3-6.78-4.96-14.74-4.96-23.87,0-13.01,3.32-23.55,9.96-31.6,6.62-8.04,15.8-12.07,27.49-12.07,9.5,0,16.97,1.81,22.47,5.42,5.49,3.61,9.69,8.81,12.56,15.68,2.87,6.84,4.3,15.76,4.3,26.74v3.61Zm-99.65-81.08v31.57h13.93v23.39h-13.93v29.43c0,3.53.27,5.87.81,7.02.83,1.76,2.3,2.65,4.39,2.65,1.88,0,4.49-.67,7.88-2.03l1.87,22.04c-6.28,1.73-12.14,2.59-17.59,2.59-6.32,0-10.99-1.01-13.99-3.05-2.98-2.03-5.19-5.13-6.64-9.26-1.43-4.14-2.15-10.87-2.15-20.14v-29.24h-9.33v-23.39h9.33v-15.25l25.43-16.32Zm-68.47,75.15c-3.5,1.57-7.14,2.97-10.95,4.2-5.15,1.74-8.43,3.44-9.8,5.13-1.43,1.73-2.13,3.71-2.13,5.93,0,2.53.7,4.62,2.09,6.22,1.4,1.6,3.45,2.4,6.15,2.4s5.48-.88,7.93-2.62c2.43-1.74,4.15-3.84,5.17-6.36,1.02-2.51,1.54-5.77,1.54-9.77v-5.13Zm-21.98-16.66l-24.28-3.21c.92-5.34,2.24-9.53,3.96-12.58,1.72-3.07,4.2-5.71,7.46-7.96,2.32-1.63,5.52-2.88,9.58-3.77,4.07-.88,8.48-1.34,13.23-1.34,7.6,0,13.69.54,18.31,1.6,4.6,1.07,8.45,3.31,11.52,6.7,2.18,2.35,3.88,5.69,5.11,9.99,1.26,4.3,1.88,8.41,1.88,12.34v36.75c0,3.92.19,7,.59,9.21.39,2.22,1.26,5.05,2.58,8.49h-23.79c-.96-2.14-1.58-3.74-1.87-4.86-.28-1.12-.58-2.86-.87-5.24-3.32,4.01-6.62,6.86-9.93,8.58-4.5,2.3-9.71,3.44-15.65,3.44-7.9,0-13.91-2.3-18-6.92-4.11-4.6-6.16-10.29-6.16-17.01,0-6.33,1.47-11.54,4.43-15.62,2.96-4.09,8.41-7.13,16.35-9.11,9.52-2.4,15.7-4.08,18.53-5.07,2.83-.96,5.83-2.22,8.99-3.79,0-3.93-.64-6.65-1.94-8.23-1.28-1.58-3.54-2.35-6.77-2.35-4.15,0-7.26.83-9.35,2.51-1.62,1.33-2.92,3.79-3.92,7.43Zm-59.03,23.71l24.15,3.37c-1.34,6.33-3.51,11.8-6.56,16.45-3.03,4.62-6.92,8.22-11.65,10.79-4.71,2.57-10.72,3.85-18,3.85s-12.9-.83-17.59-2.46c-4.66-1.65-8.69-4.33-12.07-8.01-3.37-3.66-6.01-7.99-7.92-12.96-1.92-4.97-2.88-11.54-2.88-19.73s1.17-15.68,3.5-21.37c1.7-4.19,4.04-7.93,7-11.25,2.96-3.31,5.98-5.79,9.12-7.4,4.96-2.56,11.31-3.84,19.04-3.84,10.84,0,19.09,2.43,24.77,7.27,5.68,4.86,9.67,11.93,11.97,21.26l-23.89,4.01c-.75-3.55-2.11-6.22-4.09-8.04-1.98-1.79-4.64-2.69-7.99-2.69-4.2,0-7.6,1.89-10.22,5.66-2.6,3.79-3.9,9.5-3.9,17.2,0,6.84,1.3,12.02,3.87,15.57,2.58,3.55,5.86,5.31,9.86,5.31,3.32,0,6.14-1.07,8.39-3.18,2.28-2.13,3.96-5.39,5.09-9.8Zm-112.32-8.87c0,7.46,1.19,12.96,3.58,16.51,2.38,3.55,5.37,5.34,8.99,5.34s6.62-1.76,8.97-5.26c2.34-3.5,3.51-9.13,3.51-16.88,0-7.24-1.17-12.6-3.54-16.15-2.36-3.53-5.28-5.29-8.77-5.29-3.68,0-6.73,1.79-9.14,5.37-2.41,3.61-3.6,9.05-3.6,16.37Zm-25.43.06c0-12.71,3.41-23.18,10.23-31.41,6.81-8.22,16.01-12.34,27.6-12.34,13.27,0,23.28,4.83,30.05,14.5,5.43,7.8,8.16,17.39,8.16,28.77,0,12.82-3.37,23.29-10.12,31.49-6.75,8.17-16.1,12.26-28.03,12.26-10.62,0-19.23-3.39-25.79-10.21-8.07-8.41-12.1-19.44-12.1-33.06Zm-79.23-41.82h26.43l12.87,52.69,13.29-52.69h25.62l-28.11,83.16h-22.53l-27.56-83.16Zm-33.42,41.26c0-6.54-1.11-11.43-3.3-14.63-2.2-3.23-4.98-4.83-8.35-4.83-2.94,0-5.41,1.55-7.41,4.64-1.98,3.07-2.98,8.25-2.98,15.54,0,6.81,1.02,11.78,3.09,14.96,2.04,3.18,4.6,4.75,7.63,4.75,3.23,0,5.91-1.61,8.09-4.78,2.15-3.2,3.24-8.41,3.24-15.65Zm25.49-72.83v114.73h-23.8v-12.31c-3.33,5.24-6.37,8.79-9.12,10.63-3.64,2.4-7.73,3.61-12.22,3.61-9.01,0-15.91-4.3-20.68-12.92-4.75-8.63-7.14-19.12-7.14-31.44,0-13.8,2.64-24.35,7.9-31.67,5.26-7.32,11.92-10.98,20.04-10.98,3.96,0,7.54.83,10.76,2.49,3.23,1.68,6.09,4.16,8.58,7.51v-39.64h25.68Zm-117.2,70.99l-9.99-41.24-10.03,41.24h20.02Zm5.98,24.84h-32.03l-4.6,18.91h-28.86l34.44-114.73h30.94l34.29,114.73h-29.6l-4.58-18.91Z"/>
  <polygon class="cls-2" points="203.68 16.66 356.14 128.63 503.26 12.6 432.13 155.4 356.4 204.5 243.83 120.34 153.65 336.2 75.72 335.87 203.68 16.66"/>
  <polygon class="cls-2" points="526.49 196.05 564.65 127.67 666.88 338.43 601.22 338.43 526.49 196.05"/>
  <polygon class="cls-2" points="513.87 30.18 548.4 99.24 479.39 238.89 524.55 238.88 548.88 286.29 455.31 286.3 427.17 338.43 360.85 338.43 513.87 30.18"/>
  <text class="cls-3" transform="translate(75.86 471.94) scale(1 1.21) skewX(-6)"><tspan x="0" y="0" xml:space="preserve">Advocates, Commissioners  for  Oaths &amp; Notaries Public</tspan></text>
</svg>